HIERARCHY
ROOT Hips
{
	OFFSET 0.000000 0.000000 0.000000
	CHANNELS 6 Xposition Yposition Zposition Zrotation Yrotation Xrotation 
	JOINT LHipJoint
	{
		OFFSET 0.000000 0.000000 0.000000
		CHANNELS 3 Zrotation Yrotation Xrotation
		JOINT LeftUpLeg
		{
			OFFSET 1.363060 -1.794630 0.839290
			CHANNELS 3 Zrotation Yrotation Xrotation
			JOINT LeftLeg
			{
				OFFSET 2.448110 -6.726130 0.000000
				CHANNELS 3 Zrotation Yrotation Xrotation
				JOINT LeftFoot
				{
					OFFSET 2.562200 -7.039590 0.000000
					CHANNELS 3 Zrotation Yrotation Xrotation
					JOINT LeftToeBase
					{
						OFFSET 0.157640 -0.433110 2.322550
						CHANNELS 3 Zrotation Yrotation Xrotation
						End Site
						{
							OFFSET 0.000000 0.000000 0.000000
						}
					}
				}
			}
		}
	}
	JOINT RHipJoint
	{
		OFFSET 0.000000 0.000000 0.000000
		CHANNELS 3 Zrotation Yrotation Xrotation
		JOINT RightUpLeg
		{
			OFFSET -1.305520 -1.794630 0.839290
			CHANNELS 3 Zrotation Yrotation Xrotation
			JOINT RightLeg
			{
				OFFSET -2.542530 -6.985550 0.000000
				CHANNELS 3 Zrotation Yrotation Xrotation
				JOINT RightFoot
				{
					OFFSET -2.568260 -7.056230 0.000000
					CHANNELS 3 Zrotation Yrotation Xrotation
					JOINT RightToeBase
					{
						OFFSET -0.164730 -0.452590 2.363150
						CHANNELS 3 Zrotation Yrotation Xrotation
						End Site
						{
							OFFSET 0.000000 0.000000 0.000000
						}
					}
				}
			}
		}
	}
	JOINT LowerBack
	{
		OFFSET 0.000000 0.000000 0.000000
		CHANNELS 3 Zrotation Yrotation Xrotation
		JOINT Spine
		{
			OFFSET 0.028270 2.035590 -0.193380
			CHANNELS 3 Zrotation Yrotation Xrotation
			JOINT Spine1
			{
				OFFSET 0.056720 2.048850 -0.042750
				CHANNELS 3 Zrotation Yrotation Xrotation
				JOINT Neck
				{
					OFFSET 0.000000 0.000000 0.000000
					CHANNELS 3 Zrotation Yrotation Xrotation
					JOINT Neck1
					{
						OFFSET -0.054170 1.746240 0.172020
						CHANNELS 3 Zrotation Yrotation Xrotation
						JOINT Head
						{
							OFFSET 0.104070 1.761360 -0.123970
							CHANNELS 3 Zrotation Yrotation Xrotation
							End Site
							{
								OFFSET 0.000000 0.000000 0.000000
							}
						}
					}
				}
				JOINT LeftShoulder
				{
					OFFSET 0.000000 0.000000 0.000000
					CHANNELS 3 Zrotation Yrotation Xrotation
					JOINT LeftArm
					{
						OFFSET 3.362410 1.200890 -0.311210
						CHANNELS 3 Zrotation Yrotation Xrotation
						JOINT LeftForeArm
						{
							OFFSET 4.983000 -0.000000 -0.000000
							CHANNELS 3 Zrotation Yrotation Xrotation
							JOINT LeftHand
							{
								OFFSET 3.483560 -0.000000 -0.000000
								CHANNELS 3 Zrotation Yrotation Xrotation
								JOINT LeftFingerBase
								{
									OFFSET 0.000000 0.000000 0.000000
									CHANNELS 3 Zrotation Yrotation Xrotation
									JOINT LeftHandIndex1
									{
										OFFSET 0.715260 -0.000000 -0.000000
										CHANNELS 3 Zrotation Yrotation Xrotation
										End Site
										{
											OFFSET 0.000000 0.000000 0.000000
										}
									}
								}
								JOINT LThumb
								{
									OFFSET 0.000000 0.000000 0.000000
									CHANNELS 3 Zrotation Yrotation Xrotation
									End Site
									{
										OFFSET 0.000000 0.000000 0.000000
									}
								}
							}
						}
					}
				}
				JOINT RightShoulder
				{
					OFFSET 0.000000 0.000000 0.000000
					CHANNELS 3 Zrotation Yrotation Xrotation
					JOINT RightArm
					{
						OFFSET -3.136600 1.374050 -0.404650
						CHANNELS 3 Zrotation Yrotation Xrotation
						JOINT RightForeArm
						{
							OFFSET -5.241900 -0.000000 -0.000000
							CHANNELS 3 Zrotation Yrotation Xrotation
							JOINT RightHand
							{
								OFFSET -3.444170 -0.000000 -0.000000
								CHANNELS 3 Zrotation Yrotation Xrotation
								JOINT RightFingerBase
								{
									OFFSET 0.000000 0.000000 0.000000
									CHANNELS 3 Zrotation Yrotation Xrotation
									JOINT RightHandIndex1
									{
										OFFSET -0.622530 -0.000000 -0.000000
										CHANNELS 3 Zrotation Yrotation Xrotation
										End Site
										{
											OFFSET 0.000000 0.000000 0.000000
										}
									}
								}
								JOINT RThumb
								{
									OFFSET 0.000000 0.000000 0.000000
									CHANNELS 3 Zrotation Yrotation Xrotation
									End Site
									{
										OFFSET 0.000000 0.000000 0.000000
									}
								}
							}
						}
					}
				}
			}
		}
	}
}
MOTION
Frames: 8
Frame Time: 0.008333
2.983886 17.197747 0.663846 119.488994 -87.242860 -112.641813 -8.599412 2.479795 -1.145988 -16.620859 23.640127 -34.340727 -2.626952 1.637019 39.323534 1.324872 6.270619 -13.107207 -0.859599 0.000000 -29.312200 11.582170 -2.137363 1.465808 5.677243 -12.204806 -17.536209 2.350437 -0.807246 22.060612 -0.757093 -1.078543 -10.902795 0.109800 0.000000 -63.215800 -5.820716 -1.251815 -2.841348 -1.312843 -0.917649 -2.883501 -3.778183 -1.034465 2.745336 8.831481 -16.126654 -12.023528 -0.246039 0.056154 -1.153459 0.000000 0.000000 0.000000 -3.357796 25.594445 1.779797 -63.191423 21.903759 8.344105 -3.790497 -40.391166 -0.034946 -7.959145 11.308248 -0.786880 -0.103357 -0.108343 -0.000000 0.000000 0.000000 0.000000 0.000000 0.000000 0.000000 4.813886 -10.704007 0.853741 48.785216 6.953831 11.023791 2.194138 47.358114 0.015744 3.996348 4.308745 0.153075 0.069377 -0.129374 0.000000 0.000000 0.000000 0.000000 0.000000 0.000000 0.000000 
2.874076 17.146832 0.669233 127.314852 -86.693860 -120.123886 -8.620025 2.340802 -1.206907 -17.198881 23.474285 -35.121334 -2.597068 1.631060 39.847739 1.324640 6.171768 -13.256059 -0.871600 -0.000000 -29.551100 11.578361 -2.175912 1.449903 5.346705 -12.150426 -18.964588 2.374634 -1.109519 24.733386 -0.669098 -0.364173 -11.658756 0.123800 -0.000001 -65.142100 -6.280952 -1.233448 -2.782422 -1.379607 -0.862992 -2.848022 -3.649748 -0.984249 2.845214 8.879427 -16.006760 -12.207110 -0.176261 0.065893 -1.212296 0.000000 0.000000 0.000000 -3.529048 26.268676 1.876147 -64.689043 22.069350 6.684365 -3.862726 -40.011573 -0.034815 -8.524372 11.228183 -0.837799 -0.100552 -0.104758 -0.000000 0.000000 0.000000 0.000000 0.000000 0.000000 0.000000 4.625499 -10.510871 0.919816 47.368123 8.041298 10.971102 2.105204 48.254832 0.015845 4.300448 4.021988 0.154645 0.062040 -0.133847 0.000000 0.000000 0.000000 0.000000 0.000000 0.000000 0.000000 
2.765561 17.085554 0.675791 133.613234 -86.064559 -126.073445 -8.668199 2.213208 -1.263086 -17.689266 23.249841 -35.963031 -2.542574 1.663613 40.691332 1.328345 6.133822 -13.346913 -0.878401 -0.000000 -29.836300 11.559096 -2.199103 1.428889 5.041219 -12.045428 -20.524829 2.376704 -1.430683 27.669903 -0.594157 0.269891 -12.451333 0.121600 0.000000 -66.909700 -6.725568 -1.214004 -2.729541 -1.447579 -0.808796 -2.812485 -3.532893 -0.933761 2.949746 8.950430 -15.878748 -12.406324 -0.117498 0.075032 -1.276005 0.000000 0.000000 0.000000 -3.708577 26.944592 1.978282 -66.197060 22.183978 4.903160 -3.930969 -39.630176 -0.034764 -9.109706 11.197800 -0.893818 -0.097876 -0.101185 -0.000000 0.000000 0.000000 0.000000 0.000000 0.000000 0.000000 4.509901 -10.304311 0.992008 45.877733 9.151771 10.767861 2.017641 49.115451 0.016073 4.595828 3.747905 0.154913 0.054388 -0.138850 0.000000 0.000000 0.000000 0.000000 0.000000 0.000000 0.000000 
2.657926 17.012752 0.683735 138.840911 -85.368619 -130.941839 -8.737107 2.093602 -1.315214 -18.097123 22.988336 -36.887047 -2.465610 1.731481 41.852304 1.336613 6.146728 -13.421683 -0.885500 0.000000 -30.186000 11.529730 -2.210129 1.411333 4.770283 -11.874465 -22.211819 2.353111 -1.766086 30.840353 -0.535193 0.810059 -13.296628 0.106999 -0.000000 -68.462100 -7.141007 -1.192240 -2.692874 -1.513534 -0.755018 -2.779651 -3.428111 -0.883286 3.056048 9.042780 -15.742698 -12.621278 -0.068898 0.083619 -1.344533 0.000000 0.000000 0.000000 -3.908289 27.625145 2.084155 -67.678819 22.246218 3.086511 -3.991423 -39.254611 -0.034749 -9.678811 11.215587 -0.951934 -0.095391 -0.097742 -0.000000 0.000000 0.000000 0.000000 0.000000 0.000000 0.000000 4.459900 -10.083347 1.069459 44.307672 10.273247 10.420692 1.929282 49.949171 0.016442 4.850342 3.518659 0.154382 0.046681 -0.144818 0.000000 0.000000 0.000000 0.000000 0.000000 0.000000 0.000000 
2.550084 16.927397 0.693158 143.310748 -84.616404 -135.028585 -8.821199 1.980812 -1.360691 -18.432226 22.709833 -37.916116 -2.370543 1.831278 43.320931 1.350447 6.196965 -13.535150 -0.899600 -0.000000 -30.608800 11.493091 -2.212594 1.407239 4.543777 -11.627086 -24.019192 2.302216 -2.109120 34.207084 -0.493211 1.255979 -14.215755 0.083900 -0.000001 -69.685800 -7.516855 -1.167028 -2.688128 -1.574955 -0.701533 -2.752986 -3.335034 -0.833132 3.163224 9.154751 -15.603054 -12.852113 -0.028783 0.091773 -1.417769 0.000000 0.000000 0.000000 -4.133295 28.316541 2.191560 -69.098452 22.248736 1.329683 -4.041975 -38.875779 -0.034708 -10.194863 11.267013 -1.007952 -0.093157 -0.094463 -0.000000 0.000000 0.000000 0.000000 0.000000 0.000000 0.000000 4.466586 -9.852777 1.150569 42.652644 11.395873 9.942064 1.838090 50.760893 0.016915 5.029421 3.362431 0.153853 0.039252 -0.152166 0.000000 0.000000 0.000000 0.000000 0.000000 0.000000 0.000000 
2.441927 16.828737 0.704416 147.237535 -83.817681 -138.545264 -8.918261 1.872187 -1.399755 -18.693722 22.425388 -39.053608 -2.261619 1.960386 45.081851 1.372270 6.280344 -13.749484 -0.929800 0.000000 -31.102200 11.449647 -2.207707 1.418960 4.370448 -11.299743 -25.925167 2.221792 -2.453204 37.725081 -0.468604 1.605200 -15.206995 0.056000 0.000000 -70.647901 -7.838951 -1.137136 -2.716544 -1.628884 -0.648129 -2.735789 -3.254373 -0.783284 3.259519 9.279351 -15.445425 -13.091967 0.001661 0.099226 -1.493699 0.000000 0.000000 0.000000 -4.411584 28.978673 2.298691 -70.429093 22.233408 -0.345930 -4.080681 -38.525408 -0.034652 -10.653750 11.355542 -1.062267 -0.091070 -0.091485 -0.000000 0.000000 0.000000 0.000000 0.000000 0.000000 0.000000 4.515214 -9.594434 1.237670 40.918735 12.473205 9.300391 1.743518 51.580221 0.017473 5.136687 3.269766 0.153628 0.032122 -0.161049 0.000000 0.000000 0.000000 0.000000 0.000000 0.000000 0.000000 
2.331702 16.716356 0.717128 150.704021 -82.991337 -141.556430 -9.018496 1.771448 -1.421664 -18.902620 22.134206 -40.317291 -2.144218 2.114438 47.107280 1.404335 6.388363 -14.124941 -0.984600 -0.000000 -31.663800 11.405334 -2.198212 1.456399 4.255267 -10.909952 -27.924699 2.115265 -2.790611 41.341405 -0.457352 1.889487 -16.284301 0.023900 0.000000 -71.266901 -8.104305 -1.104500 -2.802784 -1.673997 -0.597273 -2.730708 -3.183457 -0.736767 3.354544 9.419356 -15.297483 -13.346471 0.026958 0.106458 -1.573701 0.000000 0.000000 0.000000 -4.717671 29.646575 2.403851 -71.643419 22.145760 -1.823776 -4.110747 -38.127052 -0.034467 -11.016446 11.441290 -1.107080 -0.089276 -0.088603 -0.000000 0.000000 0.000000 0.000000 0.000000 0.000000 0.000000 4.602313 -9.342689 1.325721 39.100582 13.526880 8.539540 1.644056 52.387495 0.018007 5.134190 3.263555 0.153906 0.025740 -0.171678 0.000000 0.000000 0.000000 0.000000 0.000000 0.000000 0.000000 
2.219749 16.590487 0.731196 153.720220 -82.160254 -144.081189 -9.114481 1.678835 -1.426220 -19.065001 21.819108 -41.669013 -2.020749 2.288492 49.355254 1.450797 6.533428 -14.710965 -1.074300 0.000000 -32.285200 11.368777 -2.181258 1.510149 4.183224 -10.500723 -29.978598 1.985194 -3.117634 45.001379 -0.453824 2.139249 -17.423744 -0.014000 -0.000000 -71.675600 -8.312005 -1.073331 -2.932026 -1.709834 -0.553048 -2.737451 -3.122810 -0.697519 3.437414 9.570323 -15.145378 -13.609411 0.045060 0.113169 -1.656179 0.000000 0.000000 0.000000 -5.068071 30.272480 2.506815 -72.729745 22.014229 -3.122748 -4.133169 -37.691754 -0.034177 -11.294544 11.528132 -1.143989 -0.087673 -0.085835 -0.000000 0.000000 0.000000 0.000000 0.000000 0.000000 0.000000 4.720457 -9.082669 1.417291 37.212886 14.508012 7.614636 1.540650 53.215359 0.018487 5.061038 3.300210 0.153987 0.019810 -0.183739 0.000000 0.000000 0.000000 0.000000 0.000000 0.000000 0.000000 
